<svg width="127" height="27" viewBox="0 0 127 27" fill="none" xmlns="http://www.w3.org/2000/svg">
<g clip-path="url(#clip0_94_257)">
<path opacity="0.96" d="M0 0V27H27.5413V25.8474C27.5413 24.313 27.3355 22.7713 26.8138 21.3306C25.5426 17.8439 22.8531 15.0128 19.4215 13.5144C22.8531 12.016 25.5352 9.1849 26.8138 5.69104C27.3429 4.24306 27.5413 2.70864 27.5413 1.17423V0H0ZM2.32205 24.7884C2.27796 24.7956 2.21918 24.7956 2.16774 24.8028V2.37006C7.54666 2.88874 11.838 7.05256 12.4406 12.3114C12.448 12.3402 12.448 12.3618 12.448 12.3906C12.492 12.7868 12.5141 13.183 12.5141 13.5864C12.5141 13.9394 12.4994 14.2852 12.4627 14.631C12.4627 14.6526 12.4627 14.6814 12.4553 14.703C11.9262 19.9835 7.68628 24.1905 2.32205 24.7884ZM25.2266 24.8749H8.70034C12.1246 22.6273 14.4761 18.9317 14.8141 14.6814C20.3326 15.1713 24.7196 19.472 25.2266 24.8749ZM14.8067 12.3402C14.4099 8.03228 11.963 4.32231 8.4358 2.12513H25.2266C24.7342 7.54242 20.3326 11.8575 14.8067 12.3402Z" fill="black"/>
<path d="M39.3793 21.9141C39.0046 21.9141 38.8209 21.7052 38.8209 21.2802C38.8209 21.1289 38.8356 20.9344 38.865 20.7038C38.8943 20.4733 38.9458 20.2068 39.0266 19.897L42.5685 3.44344L42.3039 3.21291L36.8589 4.76174L36.7707 5.2516L37.2116 5.39568C37.9905 5.6262 38.3212 6.14488 38.2036 6.9445C38.064 7.65048 37.9464 8.28442 37.8509 8.83911C37.7554 9.39381 37.6231 10.0133 37.4688 10.7049L35.7419 18.9461C35.6023 19.6737 35.4921 20.2716 35.4039 20.7399C35.3157 21.2081 35.2717 21.6043 35.2717 21.9285C35.2717 22.5192 35.4627 22.9731 35.8448 23.29C36.2269 23.607 36.7266 23.7655 37.3512 23.7655C38.3506 23.7655 39.203 23.4845 39.9304 22.9154C40.6506 22.3535 41.2605 21.734 41.7455 21.064L41.334 20.6606C40.4742 21.4819 39.8202 21.8925 39.372 21.8925L39.3793 21.9141Z" fill="black"/>
<path d="M64.0401 13.2983C65.8919 12.9525 67.1925 12.3834 67.9347 11.591C68.6768 10.7986 69.0443 9.90528 69.0443 8.90395C69.0443 7.60005 68.5152 6.52668 67.4644 5.67663C66.4136 4.82657 64.7088 4.40155 62.372 4.40155H54.1126V5.00667L54.5829 5.15075C55.0091 5.28762 55.2957 5.47492 55.4353 5.71265C55.5749 5.95037 55.641 6.30336 55.641 6.7572C55.641 7.86659 55.641 8.97599 55.6557 10.071C55.6631 11.1732 55.6704 12.2753 55.6704 13.3847V13.6153C54.965 15.5747 54.2375 17.0443 53.5174 18.1537V18.1321C53.5174 18.1321 53.5027 18.1753 53.488 18.1969C52.0036 20.4661 50.5928 21.1793 49.6522 21.381C49.4758 21.4026 49.2995 21.4314 49.1084 21.4314C48.1532 21.4314 47.4036 21.1433 46.8525 20.567C46.3087 19.9907 46.0001 19.083 45.9413 17.8367C48.7337 17.246 50.8647 16.4176 52.3417 15.3514C53.8187 14.2924 54.5535 13.2118 54.5535 12.1241C54.5535 11.2236 54.2375 10.5104 53.5982 9.97012C52.9663 9.43703 52.0404 9.16329 50.8279 9.16329C49.6155 9.16329 48.5647 9.41542 47.5506 9.91249C46.5365 10.4096 45.6547 11.0939 44.8979 11.9656C44.1484 12.8372 43.5531 13.8242 43.1269 14.9336C42.7007 16.043 42.4803 17.2028 42.4803 18.4058C42.4803 20.1491 42.9359 21.4747 43.8397 22.3967C44.7509 23.3188 45.9266 23.7727 47.3669 23.7727C47.8004 23.7727 48.2119 23.7223 48.6087 23.643C48.6087 23.643 48.6822 23.6286 48.7116 23.6214C48.719 23.6214 48.7337 23.6214 48.741 23.6214C49.5934 23.4485 50.365 23.0739 51.0557 22.5696C51.2982 22.4112 51.5187 22.2311 51.7171 22.0293C53.9803 19.9763 55.2736 16.6769 55.6484 15.6107V17.7287C55.6484 18.8308 55.641 19.9258 55.619 21.0136C55.619 21.4314 55.5455 21.77 55.3985 22.0149C55.2516 22.2671 54.9723 22.4616 54.5608 22.6201L54.0906 22.7641V23.3693H61.4388C63.1363 23.3693 64.5398 23.2108 65.6567 22.8938C66.7663 22.5768 67.6554 22.159 68.3094 21.6475C68.9634 21.1289 69.4264 20.5598 69.6983 19.9402C69.9701 19.3207 70.1098 18.7012 70.1098 18.0888C70.1098 16.8426 69.6321 15.7908 68.6768 14.9336C67.7216 14.0691 66.1711 13.5288 64.0181 13.2983H64.0401ZM46.4925 14.4365C46.8011 13.6009 47.1905 12.8661 47.6461 12.2249C48.1017 11.5838 48.5867 11.0795 49.0937 10.7049C49.6008 10.3303 50.0784 10.143 50.5266 10.143C50.9161 10.143 51.2394 10.2727 51.4966 10.532C51.7465 10.7914 51.8787 11.1948 51.8787 11.7495C51.8787 12.8012 51.4378 13.7954 50.5487 14.7319C49.6596 15.6684 48.1238 16.4536 45.934 17.0875C45.9928 16.151 46.1765 15.2649 46.4925 14.4293V14.4365ZM59.8222 5.22999H61.5784C62.7468 5.22999 63.6065 5.52535 64.1577 6.12326C64.7014 6.71398 64.9807 7.75133 64.9807 9.22092C64.9807 10.6905 64.6794 11.6342 64.0842 12.2177C63.489 12.8012 62.5264 13.0966 61.1963 13.0966H59.8222V5.22999ZM64.7088 21.4819C63.9887 22.1878 62.8938 22.5408 61.4315 22.5408H59.8222V13.925H61.3433C62.9232 13.925 64.0621 14.2348 64.7529 14.8615C65.4436 15.4811 65.789 16.5544 65.789 18.06C65.789 19.5656 65.4289 20.7687 64.7088 21.4747V21.4819Z" fill="black"/>
<path d="M81.8523 10.0422C80.7721 9.45865 79.5449 9.16329 78.1782 9.16329C76.8114 9.16329 75.5842 9.45865 74.504 10.0422C73.4238 10.6257 72.5641 11.4613 71.9248 12.5563C71.2928 13.6441 70.9695 14.948 70.9695 16.4608C70.9695 17.9736 71.2634 19.2775 71.866 20.3653C72.4612 21.453 73.2989 22.2959 74.3865 22.8938C75.4667 23.4845 76.7305 23.7871 78.1782 23.7871C79.6258 23.7871 80.9117 23.4917 81.9846 22.9082C83.0574 22.3247 83.8951 21.4819 84.4903 20.3797C85.0855 19.2775 85.3868 17.9736 85.3868 16.4608C85.3868 14.948 85.0708 13.6225 84.4315 12.5419C83.7996 11.4613 82.9398 10.6257 81.8523 10.0422ZM80.8456 20.4445C80.6472 21.381 80.3312 22.0366 79.8977 22.4112C79.4568 22.7858 78.8836 22.9731 78.1855 22.9731C77.4874 22.9731 76.9143 22.7858 76.4881 22.4112C76.0619 22.0366 75.7385 21.381 75.5328 20.4445C75.327 19.508 75.2242 18.1969 75.2242 16.5112C75.2242 14.8255 75.327 13.4856 75.5328 12.5347C75.7385 11.5838 76.0545 10.9282 76.4881 10.5536C76.9143 10.179 77.4801 9.99173 78.1855 9.99173C78.8909 9.99173 79.4568 10.179 79.8977 10.5536C80.3385 10.9282 80.6545 11.5838 80.8456 12.5347C81.044 13.4856 81.1395 14.8111 81.1395 16.5112C81.1395 18.2113 81.044 19.508 80.8456 20.4445Z" fill="black"/>
<path d="M99.9364 22.0582H99.2603C98.4594 22.0582 98.0625 21.6475 98.0625 20.8263V14.4221C98.0625 12.5635 97.607 11.2236 96.6884 10.4023C95.7699 9.58111 94.4399 9.17049 92.7057 9.17049C91.6549 9.17049 90.6702 9.30736 89.759 9.57391C88.8478 9.84045 88.1203 10.2439 87.5766 10.7769C87.0328 11.31 86.7536 11.9728 86.7536 12.758C86.7536 13.2335 86.9152 13.6225 87.2386 13.9178C87.5619 14.2132 87.966 14.3645 88.451 14.3645C88.9801 14.3645 89.421 14.1844 89.7664 13.8314C90.1191 13.4784 90.3248 12.9165 90.3836 12.1529L90.4718 11.7783C90.5526 11.1443 90.7216 10.6905 90.9862 10.4168C91.2507 10.143 91.6034 9.99893 92.0517 9.99893H92.1398C92.86 9.99893 93.3891 10.2511 93.7197 10.7481C94.0504 11.2452 94.2194 12.1457 94.2194 13.4496V15.4883C93.7932 15.5675 93.3523 15.6395 92.9188 15.7044C92.4779 15.7692 92.0958 15.8412 91.7651 15.9205C89.8104 16.2807 88.3849 16.857 87.4737 17.6278C86.5625 18.4058 86.1143 19.2487 86.1143 20.1708C86.1143 21.3378 86.4964 22.2311 87.2679 22.8578C88.0395 23.4773 88.9801 23.7943 90.097 23.7943C91.0743 23.7943 91.8606 23.5926 92.4705 23.1892C93.0731 22.7858 93.6903 22.2599 94.3149 21.6115C94.4692 22.2599 94.7999 22.7858 95.2922 23.1748C95.7919 23.5638 96.4606 23.7655 97.2983 23.7655C98.0405 23.7655 98.6284 23.643 99.0546 23.4053C99.4808 23.1676 99.8776 22.829 100.223 22.3895L99.929 22.0726L99.9364 22.0582ZM94.2267 20.8191C93.6977 21.2225 93.2641 21.5107 92.9114 21.6836C92.5587 21.8565 92.1913 21.9429 91.8018 21.9429C91.236 21.9429 90.7731 21.7556 90.413 21.381C90.0529 21.0064 89.8692 20.4373 89.8692 19.6737C89.8692 18.7948 90.1264 18.0961 90.6481 17.5774C91.1625 17.0587 91.8459 16.7057 92.6836 16.5184C93.2127 16.4031 93.7271 16.3095 94.2341 16.2303V20.8263L94.2267 20.8191Z" fill="black"/>
<path d="M111.304 9.73959C110.929 9.35779 110.378 9.16329 109.636 9.16329C109.107 9.16329 108.585 9.30736 108.056 9.59552C107.527 9.88367 107.042 10.2583 106.594 10.7121C106.146 11.1732 105.771 11.6702 105.484 12.2033V12.0016L105.22 9.47305L104.867 9.15608L100.091 10.8202V11.3388L100.532 11.4541C100.921 11.5333 101.186 11.6774 101.325 11.9007C101.465 12.1241 101.538 12.441 101.56 12.8661V21.2801C101.56 21.662 101.487 21.9717 101.34 22.2022C101.193 22.4328 100.928 22.5912 100.532 22.6921L100.091 22.8362V23.3837H107.41V22.8362L106.528 22.5768C106.153 22.4832 105.896 22.3175 105.734 22.0726C105.58 21.8348 105.499 21.5323 105.499 21.1649V13.6441C105.639 13.2983 105.786 12.9957 105.955 12.7364C106.124 12.4771 106.3 12.2537 106.498 12.0592C106.733 11.7927 106.969 11.6702 107.218 11.699C107.461 11.7279 107.681 11.8575 107.88 12.088L107.939 12.1457C108.504 12.8372 109.18 13.1758 109.959 13.1758C110.488 13.1758 110.937 13.0101 111.304 12.6716C111.672 12.3402 111.863 11.8431 111.863 11.1948C111.863 10.6041 111.679 10.1142 111.304 9.73239V9.73959Z" fill="black"/>
<path d="M126.677 22.7425C126.324 22.6489 126.081 22.4832 125.942 22.2383C125.802 22.0005 125.736 21.698 125.736 21.3306V7.52801L125.854 3.47945L125.472 3.22012L120.379 4.45197V4.99946L120.967 5.11473C121.357 5.20838 121.614 5.35245 121.746 5.53255C121.871 5.71265 121.937 6.008 121.937 6.41142V10.143C121.452 9.81884 120.886 9.5739 120.24 9.40822C119.593 9.24253 118.924 9.16329 118.219 9.16329C117.05 9.16329 115.97 9.44424 115 9.99893C114.023 10.5536 113.244 11.3821 112.656 12.4843C112.068 13.5864 111.774 14.9552 111.774 16.6049C111.774 18.2545 112.032 19.6017 112.553 20.6678C113.068 21.7268 113.788 22.512 114.706 23.0235C115.625 23.5277 116.661 23.7871 117.807 23.7871C118.63 23.7871 119.38 23.6718 120.063 23.4413C120.747 23.2108 121.349 22.8938 121.878 22.4904L122.143 23.6934L127.007 23.3765V22.829L126.684 22.7425H126.677ZM121.783 21.6547C121.041 22.1878 120.247 22.4616 119.409 22.4616C118.395 22.4616 117.565 22.0221 116.918 21.1433C116.272 20.2644 115.948 18.73 115.948 16.5472C115.948 14.3645 116.286 12.7796 116.977 11.7927C117.66 10.8058 118.483 10.3159 119.439 10.3159C120.276 10.3159 121.055 10.5392 121.783 10.9787V21.662V21.6547Z" fill="black"/>
</g>
<defs>
<clipPath id="clip0_94_257">
<rect width="127" height="27" fill="white"/>
</clipPath>
</defs>
</svg>
